<svg width="102" height="58" viewBox="0 0 102 58" fill="none" xmlns="http://www.w3.org/2000/svg">
<path d="M36.7227 45.4277H16.4326L12.5752 57H0.27002L21.1772 0.835938H31.9009L52.9238 57H40.6187L36.7227 45.4277ZM19.5571 36.0542H33.5981L26.5391 15.0312L19.5571 36.0542ZM101.412 38.2915C100.974 44.3348 98.7371 49.0923 94.6997 52.564C90.688 56.0356 85.3905 57.7715 78.8071 57.7715C71.6066 57.7715 65.9362 55.3542 61.7959 50.5195C57.6813 45.6592 55.624 38.9987 55.624 30.5381V27.105C55.624 21.7046 56.5755 16.9471 58.4785 12.8325C60.3815 8.71794 63.0946 5.56771 66.6177 3.38184C70.1665 1.17025 74.2811 0.0644531 78.9614 0.0644531C85.4419 0.0644531 90.6623 1.80029 94.6226 5.27197C98.5828 8.74365 100.872 13.6169 101.489 19.8916H89.9165C89.6336 16.2656 88.6178 13.6426 86.8691 12.0225C85.1462 10.3766 82.5103 9.55371 78.9614 9.55371C75.104 9.55371 72.2109 10.9424 70.2822 13.7197C68.3792 16.4714 67.402 20.7531 67.3506 26.5649V30.8081C67.3506 36.8771 68.2635 41.3132 70.0894 44.1162C71.9409 46.9193 74.8468 48.3208 78.8071 48.3208C82.3817 48.3208 85.0433 47.5107 86.792 45.8906C88.5664 44.2448 89.5822 41.7118 89.8394 38.2915H101.412Z" fill="#3FB03D"/>
<path d="M36.7227 45.4277H16.4326L12.5752 57H0.27002L21.1772 0.835938H31.9009L52.9238 57H40.6187L36.7227 45.4277ZM19.5571 36.0542H33.5981L26.5391 15.0312L19.5571 36.0542ZM101.412 38.2915C100.974 44.3348 98.7371 49.0923 94.6997 52.564C90.688 56.0356 85.3905 57.7715 78.8071 57.7715C71.6066 57.7715 65.9362 55.3542 61.7959 50.5195C57.6813 45.6592 55.624 38.9987 55.624 30.5381V27.105C55.624 21.7046 56.5755 16.9471 58.4785 12.8325C60.3815 8.71794 63.0946 5.56771 66.6177 3.38184C70.1665 1.17025 74.2811 0.0644531 78.9614 0.0644531C85.4419 0.0644531 90.6623 1.80029 94.6226 5.27197C98.5828 8.74365 100.872 13.6169 101.489 19.8916H89.9165C89.6336 16.2656 88.6178 13.6426 86.8691 12.0225C85.1462 10.3766 82.5103 9.55371 78.9614 9.55371C75.104 9.55371 72.2109 10.9424 70.2822 13.7197C68.3792 16.4714 67.402 20.7531 67.3506 26.5649V30.8081C67.3506 36.8771 68.2635 41.3132 70.0894 44.1162C71.9409 46.9193 74.8468 48.3208 78.8071 48.3208C82.3817 48.3208 85.0433 47.5107 86.792 45.8906C88.5664 44.2448 89.5822 41.7118 89.8394 38.2915H101.412Z" fill="url(#paint0_linear)"/>
<defs>
<linearGradient id="paint0_linear" x1="52" y1="-17" x2="52" y2="76" gradientUnits="userSpaceOnUse">
<stop stop-color="#0065FF"/>
<stop offset="1"/>
</linearGradient>
</defs>
</svg>
