<svg width="834" height="1024" viewBox="0 0 834 1024" fill="none" xmlns="http://www.w3.org/2000/svg">
<rect width="834" height="1024" fill="black"/>
<path d="M165.15 570.8C148.55 570.8 136.05 566.4 127.65 557.6C119.25 548.7 115.05 535.35 115.05 517.55C115.05 499.75 119.25 486.45 127.65 477.65C136.05 468.75 148.55 464.3 165.15 464.3C178.55 464.3 189.25 467.65 197.25 474.35C205.35 480.95 209.4 490.6 209.4 503.3H194.85C194.85 494.5 192.2 487.85 186.9 483.35C181.7 478.75 174.45 476.45 165.15 476.45C153.05 476.45 144.15 479.65 138.45 486.05C132.75 492.45 129.85 502.85 129.75 517.25V517.55C129.75 532.05 132.6 542.55 138.3 549.05C144 555.45 152.95 558.65 165.15 558.65C174.65 558.65 182.05 556.4 187.35 551.9C192.75 547.4 195.45 540.8 195.45 532.1H209.4C209.4 544.9 205.4 554.55 197.4 561.05C189.4 567.55 178.65 570.8 165.15 570.8ZM247.752 570.8C240.952 570.8 234.902 569.2 229.602 566C224.302 562.8 221.652 557 221.652 548.6C221.652 538.5 226.152 531.6 235.152 527.9C244.152 524.1 257.152 522.2 274.152 522.2V513.5C274.152 508.9 272.852 505.4 270.252 503C267.652 500.5 262.952 499.25 256.152 499.25C249.752 499.25 245.152 500.45 242.352 502.85C239.652 505.25 238.302 508.2 238.302 511.7V513.5H225.552C225.452 512.9 225.402 511.8 225.402 510.2C225.402 503.2 228.302 497.8 234.102 494C239.902 490.2 247.652 488.3 257.352 488.3C267.152 488.3 274.602 490.35 279.702 494.45C284.802 498.55 287.352 504.35 287.352 511.85V554.6C287.352 556.4 287.852 557.75 288.852 558.65C289.852 559.45 291.102 559.85 292.602 559.85H298.602V568.4C296.002 569.6 292.602 570.2 288.402 570.2C285.002 570.2 282.152 569.2 279.852 567.2C277.552 565.1 276.002 562.35 275.202 558.95H274.152C271.452 562.65 267.752 565.55 263.052 567.65C258.452 569.75 253.352 570.8 247.752 570.8ZM251.202 559.85C255.102 559.85 258.802 559.05 262.302 557.45C265.802 555.85 268.652 553.5 270.852 550.4C273.052 547.2 274.152 543.35 274.152 538.85V533.15C261.252 533.15 251.552 534.2 245.052 536.3C238.652 538.3 235.452 542.15 235.452 547.85C235.452 552.15 236.752 555.25 239.352 557.15C242.052 558.95 246.002 559.85 251.202 559.85ZM309.652 490.1H319.702L321.202 500.75H322.252C327.652 492.45 335.552 488.3 345.952 488.3C356.152 488.3 362.952 492.45 366.352 500.75H367.252C369.952 496.75 373.452 493.7 377.752 491.6C382.152 489.4 386.802 488.3 391.702 488.3C407.202 488.3 414.952 496.25 414.952 512.15V569H401.752V514.55C401.752 508.85 400.502 504.9 398.002 502.7C395.502 500.4 392.052 499.25 387.652 499.25C382.352 499.25 377.902 501.35 374.302 505.55C370.702 509.75 368.902 515.35 368.902 522.35V569H355.702V514.55C355.702 508.85 354.502 504.9 352.102 502.7C349.702 500.4 346.302 499.25 341.902 499.25C338.502 499.25 335.352 500.2 332.452 502.1C329.552 503.9 327.202 506.55 325.402 510.05C323.702 513.55 322.852 517.65 322.852 522.35V569H309.652V490.1ZM456.053 570.8C449.253 570.8 443.203 569.2 437.903 566C432.603 562.8 429.953 557 429.953 548.6C429.953 538.5 434.453 531.6 443.453 527.9C452.453 524.1 465.453 522.2 482.453 522.2V513.5C482.453 508.9 481.153 505.4 478.553 503C475.953 500.5 471.253 499.25 464.453 499.25C458.053 499.25 453.453 500.45 450.653 502.85C447.953 505.25 446.603 508.2 446.603 511.7V513.5H433.853C433.753 512.9 433.703 511.8 433.703 510.2C433.703 503.2 436.603 497.8 442.403 494C448.203 490.2 455.953 488.3 465.653 488.3C475.453 488.3 482.903 490.35 488.003 494.45C493.103 498.55 495.653 504.35 495.653 511.85V554.6C495.653 556.4 496.153 557.75 497.153 558.65C498.153 559.45 499.403 559.85 500.903 559.85H506.903V568.4C504.303 569.6 500.903 570.2 496.703 570.2C493.303 570.2 490.453 569.2 488.153 567.2C485.853 565.1 484.303 562.35 483.503 558.95H482.453C479.753 562.65 476.053 565.55 471.353 567.65C466.753 569.75 461.653 570.8 456.053 570.8ZM459.503 559.85C463.403 559.85 467.103 559.05 470.603 557.45C474.103 555.85 476.953 553.5 479.153 550.4C481.353 547.2 482.453 543.35 482.453 538.85V533.15C469.553 533.15 459.853 534.2 453.353 536.3C446.953 538.3 443.753 542.15 443.753 547.85C443.753 552.15 445.053 555.25 447.653 557.15C450.353 558.95 454.303 559.85 459.503 559.85ZM517.952 490.1H528.002L529.502 501.95H530.402C531.902 498.05 534.152 494.8 537.152 492.2C540.152 489.6 544.102 488.3 549.002 488.3C551.702 488.3 554.052 488.7 556.052 489.5V502.25H550.502C544.902 502.25 540.252 503.9 536.552 507.2C532.952 510.4 531.152 515.45 531.152 522.35V569H517.952V490.1ZM582.004 596.3C576.204 596.3 571.154 594.8 566.854 591.8C562.654 588.9 560.554 584.05 560.554 577.25C560.554 569.05 564.804 563.45 573.304 560.45C570.904 559.15 568.904 557.5 567.304 555.5C565.804 553.4 565.054 551 565.054 548.3C565.054 544.4 566.404 541.45 569.104 539.45C571.904 537.45 574.954 536.05 578.254 535.25C574.954 532.85 572.354 529.9 570.454 526.4C568.554 522.9 567.604 519.05 567.604 514.85C567.604 506.45 570.454 499.95 576.154 495.35C581.854 490.65 589.654 488.3 599.554 488.3C605.054 488.3 610.054 489.2 614.554 491C621.054 487.9 624.854 483.35 625.954 477.35H638.554C638.554 482.05 637.154 486.1 634.354 489.5C631.654 492.9 627.954 495.15 623.254 496.25C628.854 501.25 631.654 507.45 631.654 514.85C631.654 523.25 628.754 529.8 622.954 534.5C617.254 539.1 609.454 541.4 599.554 541.4H586.954C584.254 541.4 582.154 542 580.654 543.2C579.254 544.4 578.554 545.95 578.554 547.85C578.554 549.75 579.254 551.3 580.654 552.5C582.154 553.7 584.254 554.3 586.954 554.3H618.604C624.804 554.3 629.704 556.2 633.304 560C636.904 563.7 638.704 568.2 638.704 573.5C638.704 577.3 637.854 580.95 636.154 584.45C634.454 587.95 631.704 590.8 627.904 593C624.204 595.2 619.504 596.3 613.804 596.3H582.004ZM599.704 531.2C605.904 531.2 610.604 529.8 613.804 527C617.004 524.1 618.604 520.05 618.604 514.85C618.604 509.65 617.004 505.65 613.804 502.85C610.604 499.95 605.904 498.5 599.704 498.5C593.504 498.5 588.804 499.95 585.604 502.85C582.404 505.65 580.804 509.65 580.804 514.85C580.804 520.05 582.404 524.1 585.604 527C588.804 529.8 593.504 531.2 599.704 531.2ZM614.104 585.65C617.404 585.65 620.154 584.75 622.354 582.95C624.554 581.15 625.654 578.75 625.654 575.75C625.654 572.75 624.754 570.4 622.954 568.7C621.254 566.9 618.954 566 616.054 566H583.204C580.304 566 578.004 566.9 576.304 568.7C574.604 570.4 573.754 572.75 573.754 575.75C573.754 578.75 574.604 581.15 576.304 582.95C578.004 584.75 580.304 585.65 583.204 585.65H614.104ZM682.903 570.8C670.803 570.8 661.703 567.45 655.603 560.75C649.503 553.95 646.453 543.55 646.453 529.55C646.453 515.55 649.503 505.2 655.603 498.5C661.703 491.7 670.803 488.3 682.903 488.3C695.003 488.3 704.103 491.7 710.203 498.5C716.303 505.2 719.353 515.55 719.353 529.55C719.353 543.55 716.303 553.95 710.203 560.75C704.103 567.45 695.003 570.8 682.903 570.8ZM682.903 559.85C690.903 559.85 696.703 557.55 700.303 552.95C703.903 548.25 705.703 540.65 705.703 530.15V528.95C705.703 518.45 703.903 510.9 700.303 506.3C696.703 501.6 690.903 499.25 682.903 499.25C674.903 499.25 669.103 501.6 665.503 506.3C661.903 510.9 660.103 518.45 660.103 528.95V530.15C660.103 540.65 661.903 548.25 665.503 552.95C669.103 557.55 674.903 559.85 682.903 559.85Z" fill="white" fill-opacity="0.17"/>
<path d="M245.891 471.211H230.48L227.551 480H218.205L234.084 437.344H242.229L258.195 480H248.85L245.891 471.211ZM232.854 464.092H243.518L238.156 448.125L232.854 464.092ZM270.559 480H262.062V435H270.559V480ZM292.15 480.586C287.502 480.586 283.713 479.16 280.783 476.309C277.873 473.457 276.418 469.658 276.418 464.912V464.092C276.418 460.908 277.033 458.066 278.264 455.566C279.494 453.047 281.232 451.113 283.479 449.766C285.744 448.398 288.322 447.715 291.213 447.715C295.549 447.715 298.957 449.082 301.438 451.816C303.938 454.551 305.188 458.428 305.188 463.447V466.904H285.002C285.275 468.975 286.096 470.635 287.463 471.885C288.85 473.135 290.598 473.76 292.707 473.76C295.969 473.76 298.518 472.578 300.354 470.215L304.514 474.873C303.244 476.67 301.525 478.076 299.357 479.092C297.189 480.088 294.787 480.586 292.15 480.586ZM291.184 454.57C289.504 454.57 288.137 455.137 287.082 456.27C286.047 457.402 285.383 459.023 285.09 461.133H296.867V460.459C296.828 458.584 296.32 457.139 295.344 456.123C294.367 455.088 292.98 454.57 291.184 454.57ZM322.092 457.764L327.424 448.301H336.477L327.453 463.828L336.857 480H327.775L322.121 470.039L316.496 480H307.385L316.789 463.828L307.795 448.301H316.877L322.092 457.764Z" fill="#3FB03D"/>
<path d="M245.891 471.211H230.48L227.551 480H218.205L234.084 437.344H242.229L258.195 480H248.85L245.891 471.211ZM232.854 464.092H243.518L238.156 448.125L232.854 464.092ZM270.559 480H262.062V435H270.559V480ZM292.15 480.586C287.502 480.586 283.713 479.16 280.783 476.309C277.873 473.457 276.418 469.658 276.418 464.912V464.092C276.418 460.908 277.033 458.066 278.264 455.566C279.494 453.047 281.232 451.113 283.479 449.766C285.744 448.398 288.322 447.715 291.213 447.715C295.549 447.715 298.957 449.082 301.438 451.816C303.938 454.551 305.188 458.428 305.188 463.447V466.904H285.002C285.275 468.975 286.096 470.635 287.463 471.885C288.85 473.135 290.598 473.76 292.707 473.76C295.969 473.76 298.518 472.578 300.354 470.215L304.514 474.873C303.244 476.67 301.525 478.076 299.357 479.092C297.189 480.088 294.787 480.586 292.15 480.586ZM291.184 454.57C289.504 454.57 288.137 455.137 287.082 456.27C286.047 457.402 285.383 459.023 285.09 461.133H296.867V460.459C296.828 458.584 296.32 457.139 295.344 456.123C294.367 455.088 292.98 454.57 291.184 454.57ZM322.092 457.764L327.424 448.301H336.477L327.453 463.828L336.857 480H327.775L322.121 470.039L316.496 480H307.385L316.789 463.828L307.795 448.301H316.877L322.092 457.764Z" fill="url(#paint0_linear)"/>
<defs>
<linearGradient id="paint0_linear" x1="278" y1="424" x2="278" y2="494" gradientUnits="userSpaceOnUse">
<stop offset="0.450133" stop-color="#0066FF"/>
<stop offset="1" stop-color="white" stop-opacity="0"/>
</linearGradient>
</defs>
</svg>
