<svg width="1440" height="1024" viewBox="0 0 1440 1024" fill="none" xmlns="http://www.w3.org/2000/svg">
<rect width="1440" height="1024" fill="black"/>
<path d="M497.723 456.428H477.433L473.575 468H461.27L482.177 411.836H492.901L513.924 468H501.619L497.723 456.428ZM480.557 447.054H494.598L487.539 426.031L480.557 447.054ZM530.202 468H519.016V408.75H530.202V468ZM558.631 468.771C552.511 468.771 547.522 466.894 543.665 463.14C539.833 459.385 537.917 454.383 537.917 448.134V447.054C537.917 442.862 538.727 439.121 540.347 435.829C541.967 432.512 544.256 429.966 547.213 428.191C550.196 426.391 553.591 425.491 557.397 425.491C563.106 425.491 567.593 427.291 570.859 430.892C574.151 434.492 575.797 439.597 575.797 446.206V450.757H549.219C549.579 453.483 550.659 455.669 552.459 457.315C554.285 458.961 556.587 459.784 559.364 459.784C563.659 459.784 567.015 458.228 569.432 455.116L574.91 461.25C573.238 463.615 570.975 465.467 568.121 466.804C565.266 468.116 562.103 468.771 558.631 468.771ZM557.358 434.518C555.147 434.518 553.347 435.263 551.958 436.755C550.595 438.246 549.721 440.381 549.335 443.158H564.842V442.271C564.79 439.802 564.122 437.899 562.836 436.562C561.55 435.199 559.724 434.518 557.358 434.518ZM598.054 438.722L605.075 426.263H616.994L605.113 446.707L617.496 468H605.538L598.093 454.885L590.687 468H578.69L591.072 446.707L579.23 426.263H591.188L598.054 438.722Z" fill="#3FB03D"/>
<path d="M497.723 456.428H477.433L473.575 468H461.27L482.177 411.836H492.901L513.924 468H501.619L497.723 456.428ZM480.557 447.054H494.598L487.539 426.031L480.557 447.054ZM530.202 468H519.016V408.75H530.202V468ZM558.631 468.771C552.511 468.771 547.522 466.894 543.665 463.14C539.833 459.385 537.917 454.383 537.917 448.134V447.054C537.917 442.862 538.727 439.121 540.347 435.829C541.967 432.512 544.256 429.966 547.213 428.191C550.196 426.391 553.591 425.491 557.397 425.491C563.106 425.491 567.593 427.291 570.859 430.892C574.151 434.492 575.797 439.597 575.797 446.206V450.757H549.219C549.579 453.483 550.659 455.669 552.459 457.315C554.285 458.961 556.587 459.784 559.364 459.784C563.659 459.784 567.015 458.228 569.432 455.116L574.91 461.25C573.238 463.615 570.975 465.467 568.121 466.804C565.266 468.116 562.103 468.771 558.631 468.771ZM557.358 434.518C555.147 434.518 553.347 435.263 551.958 436.755C550.595 438.246 549.721 440.381 549.335 443.158H564.842V442.271C564.79 439.802 564.122 437.899 562.836 436.562C561.55 435.199 559.724 434.518 557.358 434.518ZM598.054 438.722L605.075 426.263H616.994L605.113 446.707L617.496 468H605.538L598.093 454.885L590.687 468H578.69L591.072 446.707L579.23 426.263H591.188L598.054 438.722Z" fill="url(#paint0_linear)"/>
<path d="M384.2 591.4C362.067 591.4 345.4 585.533 334.2 573.8C323 561.933 317.4 544.133 317.4 520.4C317.4 496.667 323 478.933 334.2 467.2C345.4 455.333 362.067 449.4 384.2 449.4C402.067 449.4 416.333 453.867 427 462.8C437.8 471.6 443.2 484.467 443.2 501.4H423.8C423.8 489.667 420.267 480.8 413.2 474.8C406.267 468.667 396.6 465.6 384.2 465.6C368.067 465.6 356.2 469.867 348.6 478.4C341 486.933 337.133 500.8 337 520V520.4C337 539.733 340.8 553.733 348.4 562.4C356 570.933 367.933 575.2 384.2 575.2C396.867 575.2 406.733 572.2 413.8 566.2C421 560.2 424.6 551.4 424.6 539.8H443.2C443.2 556.867 437.867 569.733 427.2 578.4C416.533 587.067 402.2 591.4 384.2 591.4ZM494.336 591.4C485.269 591.4 477.203 589.267 470.136 585C463.069 580.733 459.536 573 459.536 561.8C459.536 548.333 465.536 539.133 477.536 534.2C489.536 529.133 506.869 526.6 529.536 526.6V515C529.536 508.867 527.803 504.2 524.336 501C520.869 497.667 514.603 496 505.536 496C497.003 496 490.869 497.6 487.136 500.8C483.536 504 481.736 507.933 481.736 512.6V515H464.736C464.603 514.2 464.536 512.733 464.536 510.6C464.536 501.267 468.403 494.067 476.136 489C483.869 483.933 494.203 481.4 507.136 481.4C520.203 481.4 530.136 484.133 536.936 489.6C543.736 495.067 547.136 502.8 547.136 512.8V569.8C547.136 572.2 547.803 574 549.136 575.2C550.469 576.267 552.136 576.8 554.136 576.8H562.136V588.2C558.669 589.8 554.136 590.6 548.536 590.6C544.003 590.6 540.203 589.267 537.136 586.6C534.069 583.8 532.003 580.133 530.936 575.6H529.536C525.936 580.533 521.003 584.4 514.736 587.2C508.603 590 501.803 591.4 494.336 591.4ZM498.936 576.8C504.136 576.8 509.069 575.733 513.736 573.6C518.403 571.467 522.203 568.333 525.136 564.2C528.069 559.933 529.536 554.8 529.536 548.8V541.2C512.336 541.2 499.403 542.6 490.736 545.4C482.203 548.067 477.936 553.2 477.936 560.8C477.936 566.533 479.669 570.667 483.136 573.2C486.736 575.6 492.003 576.8 498.936 576.8ZM576.869 483.8H590.269L592.269 498H593.669C600.869 486.933 611.402 481.4 625.269 481.4C638.869 481.4 647.935 486.933 652.469 498H653.669C657.269 492.667 661.935 488.6 667.669 485.8C673.535 482.867 679.735 481.4 686.269 481.4C706.935 481.4 717.269 492 717.269 513.2V589H699.669V516.4C699.669 508.8 698.002 503.533 694.669 500.6C691.335 497.533 686.735 496 680.869 496C673.802 496 667.869 498.8 663.069 504.4C658.269 510 655.869 517.467 655.869 526.8V589H638.269V516.4C638.269 508.8 636.669 503.533 633.469 500.6C630.269 497.533 625.735 496 619.869 496C615.335 496 611.135 497.267 607.269 499.8C603.402 502.2 600.269 505.733 597.869 510.4C595.602 515.067 594.469 520.533 594.469 526.8V589H576.869V483.8ZM772.07 591.4C763.004 591.4 754.937 589.267 747.87 585C740.804 580.733 737.27 573 737.27 561.8C737.27 548.333 743.27 539.133 755.27 534.2C767.27 529.133 784.604 526.6 807.27 526.6V515C807.27 508.867 805.537 504.2 802.07 501C798.604 497.667 792.337 496 783.27 496C774.737 496 768.604 497.6 764.87 500.8C761.27 504 759.47 507.933 759.47 512.6V515H742.47C742.337 514.2 742.27 512.733 742.27 510.6C742.27 501.267 746.137 494.067 753.87 489C761.604 483.933 771.937 481.4 784.87 481.4C797.937 481.4 807.87 484.133 814.67 489.6C821.47 495.067 824.87 502.8 824.87 512.8V569.8C824.87 572.2 825.537 574 826.87 575.2C828.204 576.267 829.87 576.8 831.87 576.8H839.87V588.2C836.404 589.8 831.87 590.6 826.27 590.6C821.737 590.6 817.937 589.267 814.87 586.6C811.804 583.8 809.737 580.133 808.67 575.6H807.27C803.67 580.533 798.737 584.4 792.47 587.2C786.337 590 779.537 591.4 772.07 591.4ZM776.67 576.8C781.87 576.8 786.804 575.733 791.47 573.6C796.137 571.467 799.937 568.333 802.87 564.2C805.804 559.933 807.27 554.8 807.27 548.8V541.2C790.07 541.2 777.137 542.6 768.47 545.4C759.937 548.067 755.67 553.2 755.67 560.8C755.67 566.533 757.404 570.667 760.87 573.2C764.47 575.6 769.737 576.8 776.67 576.8ZM854.603 483.8H868.003L870.003 499.6H871.203C873.203 494.4 876.203 490.067 880.203 486.6C884.203 483.133 889.47 481.4 896.003 481.4C899.603 481.4 902.736 481.933 905.403 483V500H898.003C890.536 500 884.336 502.2 879.403 506.6C874.603 510.867 872.203 517.6 872.203 526.8V589H854.603V483.8ZM940.005 625.4C932.271 625.4 925.538 623.4 919.805 619.4C914.205 615.533 911.405 609.067 911.405 600C911.405 589.067 917.071 581.6 928.405 577.6C925.205 575.867 922.538 573.667 920.405 571C918.405 568.2 917.405 565 917.405 561.4C917.405 556.2 919.205 552.267 922.805 549.6C926.538 546.933 930.605 545.067 935.005 544C930.605 540.8 927.138 536.867 924.605 532.2C922.071 527.533 920.805 522.4 920.805 516.8C920.805 505.6 924.605 496.933 932.205 490.8C939.805 484.533 950.205 481.4 963.405 481.4C970.738 481.4 977.405 482.6 983.405 485C992.071 480.867 997.138 474.8 998.605 466.8H1015.4C1015.4 473.067 1013.54 478.467 1009.8 483C1006.2 487.533 1001.27 490.533 995.005 492C1002.47 498.667 1006.2 506.933 1006.2 516.8C1006.2 528 1002.34 536.733 994.605 543C987.005 549.133 976.605 552.2 963.405 552.2H946.605C943.005 552.2 940.205 553 938.205 554.6C936.338 556.2 935.405 558.267 935.405 560.8C935.405 563.333 936.338 565.4 938.205 567C940.205 568.6 943.005 569.4 946.605 569.4H988.805C997.071 569.4 1003.6 571.933 1008.4 577C1013.2 581.933 1015.6 587.933 1015.6 595C1015.6 600.067 1014.47 604.933 1012.2 609.6C1009.94 614.267 1006.27 618.067 1001.2 621C996.271 623.933 990.005 625.4 982.405 625.4H940.005ZM963.605 538.6C971.871 538.6 978.138 536.733 982.405 533C986.671 529.133 988.805 523.733 988.805 516.8C988.805 509.867 986.671 504.533 982.405 500.8C978.138 496.933 971.871 495 963.605 495C955.338 495 949.071 496.933 944.805 500.8C940.538 504.533 938.405 509.867 938.405 516.8C938.405 523.733 940.538 529.133 944.805 533C949.071 536.733 955.338 538.6 963.605 538.6ZM982.805 611.2C987.205 611.2 990.871 610 993.805 607.6C996.738 605.2 998.205 602 998.205 598C998.205 594 997.005 590.867 994.605 588.6C992.338 586.2 989.271 585 985.405 585H941.605C937.738 585 934.671 586.2 932.405 588.6C930.138 590.867 929.005 594 929.005 598C929.005 602 930.138 605.2 932.405 607.6C934.671 610 937.738 611.2 941.605 611.2H982.805ZM1074.54 591.4C1058.4 591.4 1046.27 586.933 1038.14 578C1030 568.933 1025.94 555.067 1025.94 536.4C1025.94 517.733 1030 503.933 1038.14 495C1046.27 485.933 1058.4 481.4 1074.54 481.4C1090.67 481.4 1102.8 485.933 1110.94 495C1119.07 503.933 1123.14 517.733 1123.14 536.4C1123.14 555.067 1119.07 568.933 1110.94 578C1102.8 586.933 1090.67 591.4 1074.54 591.4ZM1074.54 576.8C1085.2 576.8 1092.94 573.733 1097.74 567.6C1102.54 561.333 1104.94 551.2 1104.94 537.2V535.6C1104.94 521.6 1102.54 511.533 1097.74 505.4C1092.94 499.133 1085.2 496 1074.54 496C1063.87 496 1056.14 499.133 1051.34 505.4C1046.54 511.533 1044.14 521.6 1044.14 535.6V537.2C1044.14 551.2 1046.54 561.333 1051.34 567.6C1056.14 573.733 1063.87 576.8 1074.54 576.8Z" fill="white" fill-opacity="0.17"/>
<defs>
<linearGradient id="paint0_linear" x1="540" y1="394" x2="540" y2="487" gradientUnits="userSpaceOnUse">
<stop offset="0.450133" stop-color="#0066FF"/>
<stop offset="1" stop-color="white" stop-opacity="0"/>
</linearGradient>
</defs>
</svg>
