<svg width="414" height="896" viewBox="0 0 414 896" fill="none" xmlns="http://www.w3.org/2000/svg">
<rect width="414" height="896" fill="black"/>
<path d="M127.58 314.16C107.66 314.16 92.66 308.88 82.58 298.32C72.5 287.64 67.46 271.62 67.46 250.26C67.46 228.9 72.5 212.94 82.58 202.38C92.66 191.7 107.66 186.36 127.58 186.36C143.66 186.36 156.5 190.38 166.1 198.42C175.82 206.34 180.68 217.92 180.68 233.16H163.22C163.22 222.6 160.04 214.62 153.68 209.22C147.44 203.7 138.74 200.94 127.58 200.94C113.06 200.94 102.38 204.78 95.54 212.46C88.7 220.14 85.22 232.62 85.1 249.9V250.26C85.1 267.66 88.52 280.26 95.36 288.06C102.2 295.74 112.94 299.58 127.58 299.58C138.98 299.58 147.86 296.88 154.22 291.48C160.7 286.08 163.94 278.16 163.94 267.72H180.68C180.68 283.08 175.88 294.66 166.28 302.46C156.68 310.26 143.78 314.16 127.58 314.16ZM226.702 314.16C218.542 314.16 211.282 312.24 204.922 308.4C198.562 304.56 195.382 297.6 195.382 287.52C195.382 275.4 200.782 267.12 211.582 262.68C222.382 258.12 237.982 255.84 258.382 255.84V245.4C258.382 239.88 256.822 235.68 253.702 232.8C250.582 229.8 244.942 228.3 236.782 228.3C229.102 228.3 223.582 229.74 220.222 232.62C216.982 235.5 215.362 239.04 215.362 243.24V245.4H200.062C199.942 244.68 199.882 243.36 199.882 241.44C199.882 233.04 203.362 226.56 210.322 222C217.282 217.44 226.582 215.16 238.222 215.16C249.982 215.16 258.922 217.62 265.042 222.54C271.162 227.46 274.222 234.42 274.222 243.42V294.72C274.222 296.88 274.822 298.5 276.022 299.58C277.222 300.54 278.722 301.02 280.522 301.02H287.722V311.28C284.602 312.72 280.522 313.44 275.482 313.44C271.402 313.44 267.982 312.24 265.222 309.84C262.462 307.32 260.602 304.02 259.642 299.94H258.382C255.142 304.38 250.702 307.86 245.062 310.38C239.542 312.9 233.422 314.16 226.702 314.16ZM230.842 301.02C235.522 301.02 239.962 300.06 244.162 298.14C248.362 296.22 251.782 293.4 254.422 289.68C257.062 285.84 258.382 281.22 258.382 275.82V268.98C242.902 268.98 231.262 270.24 223.462 272.76C215.782 275.16 211.942 279.78 211.942 286.62C211.942 291.78 213.502 295.5 216.622 297.78C219.862 299.94 224.602 301.02 230.842 301.02ZM71.06 413.32H83.12L84.92 426.1H86.18C92.66 416.14 102.14 411.16 114.62 411.16C126.86 411.16 135.02 416.14 139.1 426.1H140.18C143.42 421.3 147.62 417.64 152.78 415.12C158.06 412.48 163.64 411.16 169.52 411.16C188.12 411.16 197.42 420.7 197.42 439.78V508H181.58V442.66C181.58 435.82 180.08 431.08 177.08 428.44C174.08 425.68 169.94 424.3 164.66 424.3C158.3 424.3 152.96 426.82 148.64 431.86C144.32 436.9 142.16 443.62 142.16 452.02V508H126.32V442.66C126.32 435.82 124.88 431.08 122 428.44C119.12 425.68 115.04 424.3 109.76 424.3C105.68 424.3 101.9 425.44 98.42 427.72C94.94 429.88 92.12 433.06 89.96 437.26C87.92 441.46 86.9 446.38 86.9 452.02V508H71.06V413.32ZM246.741 510.16C238.581 510.16 231.321 508.24 224.961 504.4C218.601 500.56 215.421 493.6 215.421 483.52C215.421 471.4 220.821 463.12 231.621 458.68C242.421 454.12 258.021 451.84 278.421 451.84V441.4C278.421 435.88 276.861 431.68 273.741 428.8C270.621 425.8 264.981 424.3 256.821 424.3C249.141 424.3 243.621 425.74 240.261 428.62C237.021 431.5 235.401 435.04 235.401 439.24V441.4H220.101C219.981 440.68 219.921 439.36 219.921 437.44C219.921 429.04 223.401 422.56 230.361 418C237.321 413.44 246.621 411.16 258.261 411.16C270.021 411.16 278.961 413.62 285.081 418.54C291.201 423.46 294.261 430.42 294.261 439.42V490.72C294.261 492.88 294.861 494.5 296.061 495.58C297.261 496.54 298.761 497.02 300.561 497.02H307.761V507.28C304.641 508.72 300.561 509.44 295.521 509.44C291.441 509.44 288.021 508.24 285.261 505.84C282.501 503.32 280.641 500.02 279.681 495.94H278.421C275.181 500.38 270.741 503.86 265.101 506.38C259.581 508.9 253.461 510.16 246.741 510.16ZM250.881 497.02C255.561 497.02 260.001 496.06 264.201 494.14C268.401 492.22 271.821 489.4 274.461 485.68C277.101 481.84 278.421 477.22 278.421 471.82V464.98C262.941 464.98 251.301 466.24 243.501 468.76C235.821 471.16 231.981 475.78 231.981 482.62C231.981 487.78 233.541 491.5 236.661 493.78C239.901 495.94 244.641 497.02 250.881 497.02ZM71.06 609.32H83.12L84.92 623.54H86C87.8 618.86 90.5 614.96 94.1 611.84C97.7 608.72 102.44 607.16 108.32 607.16C111.56 607.16 114.38 607.64 116.78 608.6V623.9H110.12C103.4 623.9 97.82 625.88 93.38 629.84C89.06 633.68 86.9 639.74 86.9 648.02V704H71.06V609.32ZM147.921 736.76C140.961 736.76 134.901 734.96 129.741 731.36C124.701 727.88 122.181 722.06 122.181 713.9C122.181 704.06 127.281 697.34 137.481 693.74C134.601 692.18 132.201 690.2 130.281 687.8C128.481 685.28 127.581 682.4 127.581 679.16C127.581 674.48 129.201 670.94 132.441 668.54C135.801 666.14 139.461 664.46 143.421 663.5C139.461 660.62 136.341 657.08 134.061 652.88C131.781 648.68 130.641 644.06 130.641 639.02C130.641 628.94 134.061 621.14 140.901 615.62C147.741 609.98 157.101 607.16 168.981 607.16C175.581 607.16 181.581 608.24 186.981 610.4C194.781 606.68 199.341 601.22 200.661 594.02H215.781C215.781 599.66 214.101 604.52 210.741 608.6C207.501 612.68 203.061 615.38 197.421 616.7C204.141 622.7 207.501 630.14 207.501 639.02C207.501 649.1 204.021 656.96 197.061 662.6C190.221 668.12 180.861 670.88 168.981 670.88H153.861C150.621 670.88 148.101 671.6 146.301 673.04C144.621 674.48 143.781 676.34 143.781 678.62C143.781 680.9 144.621 682.76 146.301 684.2C148.101 685.64 150.621 686.36 153.861 686.36H191.841C199.281 686.36 205.161 688.64 209.481 693.2C213.801 697.64 215.961 703.04 215.961 709.4C215.961 713.96 214.941 718.34 212.901 722.54C210.861 726.74 207.561 730.16 203.001 732.8C198.561 735.44 192.921 736.76 186.081 736.76H147.921ZM169.161 658.64C176.601 658.64 182.241 656.96 186.081 653.6C189.921 650.12 191.841 645.26 191.841 639.02C191.841 632.78 189.921 627.98 186.081 624.62C182.241 621.14 176.601 619.4 169.161 619.4C161.721 619.4 156.081 621.14 152.241 624.62C148.401 627.98 146.481 632.78 146.481 639.02C146.481 645.26 148.401 650.12 152.241 653.6C156.081 656.96 161.721 658.64 169.161 658.64ZM186.441 723.98C190.401 723.98 193.701 722.9 196.341 720.74C198.981 718.58 200.301 715.7 200.301 712.1C200.301 708.5 199.221 705.68 197.061 703.64C195.021 701.48 192.261 700.4 188.781 700.4H149.361C145.881 700.4 143.121 701.48 141.081 703.64C139.041 705.68 138.021 708.5 138.021 712.1C138.021 715.7 139.041 718.58 141.081 720.74C143.121 722.9 145.881 723.98 149.361 723.98H186.441ZM269.001 706.16C254.481 706.16 243.561 702.14 236.241 694.1C228.921 685.94 225.261 673.46 225.261 656.66C225.261 639.86 228.921 627.44 236.241 619.4C243.561 611.24 254.481 607.16 269.001 607.16C283.521 607.16 294.441 611.24 301.761 619.4C309.081 627.44 312.741 639.86 312.741 656.66C312.741 673.46 309.081 685.94 301.761 694.1C294.441 702.14 283.521 706.16 269.001 706.16ZM269.001 693.02C278.601 693.02 285.561 690.26 289.881 684.74C294.201 679.1 296.361 669.98 296.361 657.38V655.94C296.361 643.34 294.201 634.28 289.881 628.76C285.561 623.12 278.601 620.3 269.001 620.3C259.401 620.3 252.441 623.12 248.121 628.76C243.801 634.28 241.641 643.34 241.641 655.94V657.38C241.641 669.98 243.801 679.1 248.121 684.74C252.441 690.26 259.401 693.02 269.001 693.02Z" fill="white" fill-opacity="0.1"/>
</svg>
